# xmcd CD database file
#
# Track frame offsets:
#	150
#	18485
#	40100
#	62892
#	80695
#	101662
#	119845
#	140400
#	161545
#	179732
#	198130
#	216552
#
# Disc length: 3129 seconds
#
# Revision: 0
# Processed by: cddbd v1.5.1PL0 Copyright (c) Steve Scherf et al.
# Submitted via: CDex 1.51
#
DISCID=b50c370c
DTITLE=前川清 - Best of First Quarter BEST 25 Disc2
DYEAR=1993
DGENRE=Country
TTITLE0=雪列車
TTITLE1=涙
TTITLE2=花の時・愛の時
TTITLE3=愛がほしい
TTITLE4=恋唄
TTITLE5=男と女の破（かけら）片
TTITLE6=夢一秒
TTITLE7=潮騒のゆくへ
TTITLE8=流木
TTITLE9=哀しみへの伝言
TTITLE10=別れ曲（うた）でも唄って
TTITLE11=昔があるから
EXTD=YEAR: 1993
EXTT0=
EXTT1=
EXTT2=
EXTT3=
EXTT4=
EXTT5=
EXTT6=
EXTT7=
EXTT8=
EXTT9=
EXTT10=
EXTT11=
PLAYORDER=
